solid ASCII
  facet normal -0.000000e+00 0.000000e+00 -1.000000e+00
    outer loop
      vertex   1.000000e+01 -3.788155e+01 -5.000000e+00
      vertex   1.776357e-14 -5.250000e+01 -5.000000e+00
      vertex   1.000000e+01 3.788155e+01 -5.000000e+00
    endloop
  endfacet
  facet normal -0.000000e+00 0.000000e+00 -1.000000e+00
    outer loop
      vertex   1.000000e+01 3.788155e+01 -5.000000e+00
      vertex   1.776357e-14 -5.250000e+01 -5.000000e+00
      vertex   0.000000e+00 5.250000e+01 -5.000000e+00
    endloop
  endfacet
  facet normal 0.000000e+00 0.000000e+00 -1.000000e+00
    outer loop
      vertex   1.000000e+01 3.788155e+01 -5.000000e+00
      vertex   0.000000e+00 5.250000e+01 -5.000000e+00
      vertex   1.074097e+02 1.776357e-14 -5.000000e+00
    endloop
  endfacet
  facet normal 0.000000e+00 0.000000e+00 -1.000000e+00
    outer loop
      vertex   1.074097e+02 1.776357e-14 -5.000000e+00
      vertex   0.000000e+00 5.250000e+01 -5.000000e+00
      vertex   1.350000e+02 2.664535e-14 -5.000000e+00
    endloop
  endfacet
  facet normal 0.000000e+00 -0.000000e+00 -1.000000e+00
    outer loop
      vertex   1.074097e+02 1.776357e-14 -5.000000e+00
      vertex   1.350000e+02 2.664535e-14 -5.000000e+00
      vertex   1.776357e-14 -5.250000e+01 -5.000000e+00
    endloop
  endfacet
  facet normal 0.000000e+00 0.000000e+00 -1.000000e+00
    outer loop
      vertex   1.776357e-14 -5.250000e+01 -5.000000e+00
      vertex   1.000000e+01 -3.788155e+01 -5.000000e+00
      vertex   1.074097e+02 1.776357e-14 -5.000000e+00
    endloop
  endfacet
  facet normal -3.624463e-01 9.320047e-01 0.000000e+00
    outer loop
      vertex   1.000000e+01 -3.788155e+01 5.000000e+00
      vertex   1.074097e+02 1.776357e-14 5.000000e+00
      vertex   1.000000e+01 -3.788155e+01 -5.000000e+00
    endloop
  endfacet
  facet normal -3.624463e-01 9.320047e-01 0.000000e+00
    outer loop
      vertex   1.000000e+01 -3.788155e+01 -5.000000e+00
      vertex   1.074097e+02 1.776357e-14 5.000000e+00
      vertex   1.074097e+02 1.776357e-14 -5.000000e+00
    endloop
  endfacet
  facet normal -3.624463e-01 -9.320047e-01 -0.000000e+00
    outer loop
      vertex   1.074097e+02 1.776357e-14 5.000000e+00
      vertex   1.000000e+01 3.788155e+01 5.000000e+00
      vertex   1.074097e+02 1.776357e-14 -5.000000e+00
    endloop
  endfacet
  facet normal -3.624463e-01 -9.320047e-01 0.000000e+00
    outer loop
      vertex   1.074097e+02 1.776357e-14 -5.000000e+00
      vertex   1.000000e+01 3.788155e+01 5.000000e+00
      vertex   1.000000e+01 3.788155e+01 -5.000000e+00
    endloop
  endfacet
  facet normal 1.000000e+00 0.000000e+00 0.000000e+00
    outer loop
      vertex   1.000000e+01 3.788155e+01 5.000000e+00
      vertex   1.000000e+01 -3.788155e+01 5.000000e+00
      vertex   1.000000e+01 3.788155e+01 -5.000000e+00
    endloop
  endfacet
  facet normal 1.000000e+00 0.000000e+00 0.000000e+00
    outer loop
      vertex   1.000000e+01 3.788155e+01 -5.000000e+00
      vertex   1.000000e+01 -3.788155e+01 5.000000e+00
      vertex   1.000000e+01 -3.788155e+01 -5.000000e+00
    endloop
  endfacet
  facet normal 3.624463e-01 9.320047e-01 0.000000e+00
    outer loop
      vertex   0.000000e+00 5.250000e+01 5.000000e+00
      vertex   1.350000e+02 2.664535e-14 5.000000e+00
      vertex   0.000000e+00 5.250000e+01 -5.000000e+00
    endloop
  endfacet
  facet normal 3.624463e-01 9.320047e-01 0.000000e+00
    outer loop
      vertex   0.000000e+00 5.250000e+01 -5.000000e+00
      vertex   1.350000e+02 2.664535e-14 5.000000e+00
      vertex   1.350000e+02 2.664535e-14 -5.000000e+00
    endloop
  endfacet
  facet normal 3.624463e-01 -9.320047e-01 0.000000e+00
    outer loop
      vertex   1.350000e+02 2.664535e-14 5.000000e+00
      vertex   1.776357e-14 -5.250000e+01 5.000000e+00
      vertex   1.350000e+02 2.664535e-14 -5.000000e+00
    endloop
  endfacet
  facet normal 3.624463e-01 -9.320047e-01 0.000000e+00
    outer loop
      vertex   1.350000e+02 2.664535e-14 -5.000000e+00
      vertex   1.776357e-14 -5.250000e+01 5.000000e+00
      vertex   1.776357e-14 -5.250000e+01 -5.000000e+00
    endloop
  endfacet
  facet normal -1.000000e+00 -1.691768e-16 -0.000000e+00
    outer loop
      vertex   1.776357e-14 -5.250000e+01 5.000000e+00
      vertex   0.000000e+00 5.250000e+01 5.000000e+00
      vertex   1.776357e-14 -5.250000e+01 -5.000000e+00
    endloop
  endfacet
  facet normal -1.000000e+00 -1.691768e-16 0.000000e+00
    outer loop
      vertex   1.776357e-14 -5.250000e+01 -5.000000e+00
      vertex   0.000000e+00 5.250000e+01 5.000000e+00
      vertex   0.000000e+00 5.250000e+01 -5.000000e+00
    endloop
  endfacet
  facet normal 0.000000e+00 0.000000e+00 1.000000e+00
    outer loop
      vertex   1.074097e+02 1.776357e-14 5.000000e+00
      vertex   1.000000e+01 -3.788155e+01 5.000000e+00
      vertex   1.776357e-14 -5.250000e+01 5.000000e+00
    endloop
  endfacet
  facet normal 0.000000e+00 0.000000e+00 1.000000e+00
    outer loop
      vertex   1.776357e-14 -5.250000e+01 5.000000e+00
      vertex   1.000000e+01 -3.788155e+01 5.000000e+00
      vertex   1.000000e+01 3.788155e+01 5.000000e+00
    endloop
  endfacet
  facet normal 0.000000e+00 -0.000000e+00 1.000000e+00
    outer loop
      vertex   1.776357e-14 -5.250000e+01 5.000000e+00
      vertex   1.000000e+01 3.788155e+01 5.000000e+00
      vertex   0.000000e+00 5.250000e+01 5.000000e+00
    endloop
  endfacet
  facet normal 0.000000e+00 0.000000e+00 1.000000e+00
    outer loop
      vertex   0.000000e+00 5.250000e+01 5.000000e+00
      vertex   1.000000e+01 3.788155e+01 5.000000e+00
      vertex   1.074097e+02 1.776357e-14 5.000000e+00
    endloop
  endfacet
  facet normal 0.000000e+00 0.000000e+00 1.000000e+00
    outer loop
      vertex   0.000000e+00 5.250000e+01 5.000000e+00
      vertex   1.074097e+02 1.776357e-14 5.000000e+00
      vertex   1.350000e+02 2.664535e-14 5.000000e+00
    endloop
  endfacet
  facet normal 0.000000e+00 0.000000e+00 1.000000e+00
    outer loop
      vertex   1.350000e+02 2.664535e-14 5.000000e+00
      vertex   1.074097e+02 1.776357e-14 5.000000e+00
      vertex   1.776357e-14 -5.250000e+01 5.000000e+00
    endloop
  endfacet
endsolid
