# WaveFront *.obj file (generated by Autodesk ATF)

mtllib suspension.mtl

g sospensione

v 10.000000 37.881551 -5.000000
v 10.000000 -37.881551 -5.000000
v 107.409703 0.000000 -5.000000
v 0.000000 -52.500000 -5.000000
v 0.000000 52.500000 -5.000000
v 135.000000 0.000000 -5.000000
v 10.000000 -37.881551 5.000000
v 107.409703 0.000000 5.000000
v 10.000000 37.881551 5.000000
v 0.000000 52.500000 5.000000
v 135.000000 0.000000 5.000000
v 0.000000 -52.500000 5.000000
vt 5.750000 -3.788155 0.000000
vt 6.750000 -5.250000 0.000000
vt 5.750000 3.788155 0.000000
vt 6.750000 5.250000 0.000000
vt -3.990970 0.000000 0.000000
vt -6.750000 0.000000 0.000000
vt 10.451632 0.500000 0.000000
vt 0.000000 0.500000 0.000000
vt 10.451632 -0.500000 0.000000
vt 0.000000 -0.500000 0.000000
vt 10.451632 0.500000 0.000000
vt 0.000000 0.500000 0.000000
vt 10.451632 -0.500000 0.000000
vt 0.000000 -0.500000 0.000000
vt 7.576310 0.500000 0.000000
vt 0.000000 0.500000 0.000000
vt 7.576310 -0.500000 0.000000
vt 0.000000 -0.500000 0.000000
vt 14.484906 0.500000 0.000000
vt 0.000000 0.500000 0.000000
vt 14.484906 -0.500000 0.000000
vt 0.000000 -0.500000 0.000000
vt 14.484906 0.500000 0.000000
vt 0.000000 0.500000 0.000000
vt 14.484906 -0.500000 0.000000
vt 0.000000 -0.500000 0.000000
vt 10.500000 0.500000 0.000000
vt -0.000000 0.500000 0.000000
vt 10.500000 -0.500000 0.000000
vt -0.000000 -0.500000 0.000000
vt 3.990970 0.000000 0.000000
vt -5.750000 -3.788155 0.000000
vt -6.750000 -5.250000 0.000000
vt -5.750000 3.788155 0.000000
vt -6.750000 5.250000 0.000000
vt 6.750000 0.000000 0.000000
vn 0.000000 0.000000 -0.100000
vn 0.000000 0.000000 -0.100000
vn 0.000000 0.000000 -0.100000
vn 0.000000 0.000000 -0.100000
vn 0.000000 0.000000 -0.100000
vn 0.000000 0.000000 -0.100000
vn -0.036245 0.093200 0.000000
vn -0.036245 0.093200 0.000000
vn -0.036245 0.093200 0.000000
vn -0.036245 0.093200 0.000000
vn -0.036245 -0.093200 0.000000
vn -0.036245 -0.093200 0.000000
vn -0.036245 -0.093200 0.000000
vn -0.036245 -0.093200 0.000000
vn 0.100000 0.000000 0.000000
vn 0.100000 0.000000 0.000000
vn 0.100000 0.000000 0.000000
vn 0.100000 0.000000 0.000000
vn 0.036245 0.093200 0.000000
vn 0.036245 0.093200 0.000000
vn 0.036245 0.093200 0.000000
vn 0.036245 0.093200 0.000000
vn 0.036245 -0.093200 0.000000
vn 0.036245 -0.093200 0.000000
vn 0.036245 -0.093200 0.000000
vn 0.036245 -0.093200 0.000000
vn -0.100000 -0.000000 0.000000
vn -0.100000 -0.000000 0.000000
vn -0.100000 -0.000000 0.000000
vn -0.100000 -0.000000 0.000000
vn 0.000000 0.000000 0.100000
vn 0.000000 0.000000 0.100000
vn 0.000000 0.000000 0.100000
vn 0.000000 0.000000 0.100000
vn 0.000000 0.000000 0.100000
vn 0.000000 0.000000 0.100000
usemtl Alluminio_-_Anodizzato_ruvido_(blu)
f 2/1/1 4/2/2 1/3/3
f 1/3/3 4/2/2 5/4/4
f 1/3/3 5/4/4 3/5/5
f 3/5/5 5/4/4 6/6/6
f 3/5/5 6/6/6 4/2/2
f 4/2/2 2/1/1 3/5/5
f 7/7/7 8/8/8 2/9/9
f 2/9/9 8/8/8 3/10/10
f 8/11/11 9/12/12 3/13/13
f 3/13/13 9/12/12 1/14/14
f 9/15/15 7/16/16 1/17/17
f 1/17/17 7/16/16 2/18/18
f 10/19/19 11/20/20 5/21/21
f 5/21/21 11/20/20 6/22/22
f 11/23/23 12/24/24 6/25/25
f 6/25/25 12/24/24 4/26/26
f 12/27/27 10/28/28 4/29/29
f 4/29/29 10/28/28 5/30/30
f 8/31/31 7/32/32 12/33/33
f 12/33/33 7/32/32 9/34/34
f 12/33/33 9/34/34 10/35/35
f 10/35/35 9/34/34 8/31/31
f 10/35/35 8/31/31 11/36/36
f 11/36/36 8/31/31 12/33/33
# 12 vertices
# 36 texture params
# 36 normals
# 24 facets

# 1 groups
